<?xml version="1.0" encoding="UTF-8" standalone="no"?>
<svg
   height="512"
   viewBox="0 0 1024 512"
   width="1024"
   version="1.1"
   id="svg1909"
   sodipodi:docname="academia-square.svg"
   inkscape:export-filename="academia-square.png"
   inkscape:export-xdpi="22.5"
   inkscape:export-ydpi="22.5"
   inkscape:version="1.2.1 (9c6d41e410, 2022-07-14)"
   xmlns:inkscape="http://www.inkscape.org/namespaces/inkscape"
   xmlns:sodipodi="http://sodipodi.sourceforge.net/DTD/sodipodi-0.dtd"
   xmlns="http://www.w3.org/2000/svg"
   xmlns:svg="http://www.w3.org/2000/svg">
  <defs
     id="defs1913" />
  <sodipodi:namedview
     id="namedview1911"
     pagecolor="#ffffff"
     bordercolor="#000000"
     borderopacity="0.25"
     inkscape:showpageshadow="2"
     inkscape:pageopacity="0.0"
     inkscape:pagecheckerboard="0"
     inkscape:deskcolor="#d1d1d1"
     showgrid="false"
     showguides="true"
     inkscape:zoom="29.035572"
     inkscape:cx="502.93481"
     inkscape:cy="31.754153"
     inkscape:window-width="1600"
     inkscape:window-height="837"
     inkscape:window-x="-8"
     inkscape:window-y="-8"
     inkscape:window-maximized="1"
     inkscape:current-layer="svg1909">
    <sodipodi:guide
       position="512,453.21157"
       orientation="1,0"
       id="guide2600"
       inkscape:locked="false" />
  </sodipodi:namedview>
  <path
     d="m 336,32 c -26.5,0 -48,21.5 -48,48 v 352 c 0,26.5 21.5,48 48,48 h 352 c 26.5,0 48,-21.5 48,-48 V 80 C 736,53.5 714.5,32 688,32 Z m 159.79297,64 c 13.84989,-0.0092 27.69894,0.06531 41.54883,0.304688 37.90242,95.769872 76.87554,191.171612 115.29297,286.757812 3.86753,10.93902 16.28252,13.7763 26.33789,15.80273 0,5.70872 0.0351,11.41676 0.0351,17.12696 -50.02039,-0.0378 -100.04056,0.0369 -150.0625,-0.0371 0,-5.74523 0.0352,-11.45499 0.0352,-17.16406 12.52441,-0.95591 28.65788,-0.21841 36.09961,-12.56055 2.87395,-9.57663 -0.33071,-19.56009 -3.86719,-28.47266 -5.30418,-13.2243 -10.60874,-26.44817 -15.91406,-39.63476 -38.64033,-0.14616 -77.24053,0.11182 -115.88086,-0.10938 -6.96146,16.24434 -13.00418,32.85791 -19.37695,49.32227 -2.65131,7.25635 -5.48704,16.90792 0.92187,23.0957 8.14043,6.92532 19.63312,6.74091 29.65234,8.28711 0.036,5.7464 0.0361,11.49287 0.0723,17.27539 -31.89881,-0.0372 -63.79649,0.0735 -95.69531,-0.0742 0,-5.67257 0.0352,-11.34406 0.0352,-16.98047 9.76007,-2.02491 21.95353,-4.42154 25.67383,-15.14062 C 403.63242,299.66783 436.59941,215.50194 469.05078,131.1875 463.70932,119.69438 459.3987,107.76225 454.24219,96.195312 468.09207,96.102824 481.94308,96.009235 495.79297,96 Z m -9.83594,73.5332 c -14.51282,39.45015 -30.2036,78.49383 -45.01172,117.83399 a 9679.2904,9679.2904 0 0 0 92.12305,0 C 517.37659,248.10086 501.61265,208.83608 485.95703,169.5332 Z"
     id="path1907" />
</svg>
