<?xml version="1.0" encoding="UTF-8" standalone="no"?>
<!-- Uploaded to: SVG Repo, www.svgrepo.com, Generator: SVG Repo Mixer Tools -->

<svg
   fill="#000000"
   width="1024"
   height="512"
   viewBox="-32 0 655.36 327.68"
   version="1.1"
   id="svg3243"
   sodipodi:docname="envelope-square-svgrepo-com.svg"
   inkscape:version="1.2.1 (9c6d41e410, 2022-07-14)"
   inkscape:export-filename="envelope-square-svgrepo-com.png"
   inkscape:export-xdpi="22.5"
   inkscape:export-ydpi="22.5"
   xmlns:inkscape="http://www.inkscape.org/namespaces/inkscape"
   xmlns:sodipodi="http://sodipodi.sourceforge.net/DTD/sodipodi-0.dtd"
   xmlns="http://www.w3.org/2000/svg"
   xmlns:svg="http://www.w3.org/2000/svg">
  <defs
     id="defs3247" />
  <sodipodi:namedview
     id="namedview3245"
     pagecolor="#ffffff"
     bordercolor="#000000"
     borderopacity="0.25"
     inkscape:showpageshadow="2"
     inkscape:pageopacity="0.0"
     inkscape:pagecheckerboard="0"
     inkscape:deskcolor="#d1d1d1"
     showgrid="false"
     inkscape:zoom="0.58071144"
     inkscape:cx="451.17072"
     inkscape:cy="55.104821"
     inkscape:window-width="1600"
     inkscape:window-height="837"
     inkscape:window-x="-8"
     inkscape:window-y="-8"
     inkscape:window-maximized="1"
     inkscape:current-layer="svg3243"
     showguides="true">
    <sodipodi:guide
       position="327.68426,261.86418"
       orientation="1,0"
       id="guide6274"
       inkscape:locked="false" />
  </sodipodi:namedview>
  <path
     d="M 409.59964,21.76 H 184.32014 C 167.3536,21.76 153.6,35.5136 153.6,52.480087 V 277.75964 c 0,16.96676 13.7536,30.72036 30.72014,30.72036 h 225.2795 c 16.96676,0 30.72036,-13.7536 30.72036,-30.72036 V 52.480087 C 440.32,35.5136 426.5664,21.76 409.59964,21.76 Z M 267.59463,169.02656 c -58.04033,-42.1227 -57.44898,-42.22948 -73.03476,-54.35932 v -16.1074 c 0,-8.483195 6.87675,-15.359995 15.35998,-15.359995 h 174.08033 c 8.48338,0 15.36018,6.87679 15.36018,15.359995 v 16.1074 c -15.59762,12.1398 -14.9983,12.23936 -73.03517,54.36032 -6.72,4.89891 -20.09059,16.71662 -29.36519,16.57155 -9.28156,0.13959 -22.6347,-11.66521 -29.36537,-16.57255 z m 131.76573,-28.37081 v 91.02461 c 0,8.48291 -6.8768,15.35971 -15.36018,15.35971 H 209.91985 c -8.48323,0 -15.35998,-6.8768 -15.35998,-15.35971 v -91.02461 c 8.93305,6.90816 21.33103,16.15111 60.99423,44.93685 9.06357,6.61896 24.304,20.57316 41.40416,20.48683 17.20768,0.0847 32.66368,-14.10631 41.42055,-20.496 39.65301,-28.77731 52.04843,-38.01955 60.98155,-44.92768 z"
     id="path3241"
     style="fill:#2b8a3e;fill-opacity:1;stroke-width:0.640018" />
</svg>
