<svg xmlns='http://www.w3.org/2000/svg' viewBox='0 0 24 24'  clip-rule="evenodd" fill-rule="evenodd" stroke-linejoin="round" stroke-miterlimit="2"><path stroke='#{$navbar-light-icon-color}' stroke-linecap='round' stroke-miterlimit='10' stroke-width='2'  d="m13 16.745c0-.414-.336-.75-.75-.75h-9.5c-.414 0-.75.336-.75.75s.336.75.75.75h9.5c.414 0 .75-.336.75-.75zm9-5c0-.414-.336-.75-.75-.75h-18.5c-.414 0-.75.336-.75.75s.336.75.75.75h18.5c.414 0 .75-.336.75-.75zm-4-5c0-.414-.336-.75-.75-.75h-14.5c-.414 0-.75.336-.75.75s.336.75.75.75h14.5c.414 0 .75-.336.75-.75z" /></svg>
