<?xml version="1.0" encoding="UTF-8" standalone="no"?>
<svg
   viewBox="0 0 256 128"
   version="1.1"
   id="svg147"
   sodipodi:docname="linkedin-original.svg"
   width="256"
   height="128"
   inkscape:export-filename="linkedin-original.png"
   inkscape:export-xdpi="90"
   inkscape:export-ydpi="90"
   inkscape:version="1.2.1 (9c6d41e410, 2022-07-14)"
   xmlns:inkscape="http://www.inkscape.org/namespaces/inkscape"
   xmlns:sodipodi="http://sodipodi.sourceforge.net/DTD/sodipodi-0.dtd"
   xmlns="http://www.w3.org/2000/svg"
   xmlns:svg="http://www.w3.org/2000/svg">
  <defs
     id="defs151" />
  <sodipodi:namedview
     id="namedview149"
     pagecolor="#ffffff"
     bordercolor="#000000"
     borderopacity="0.25"
     inkscape:showpageshadow="2"
     inkscape:pageopacity="0.0"
     inkscape:pagecheckerboard="0"
     inkscape:deskcolor="#d1d1d1"
     showgrid="false"
     inkscape:zoom="1.8147233"
     inkscape:cx="50.696435"
     inkscape:cy="93.127147"
     inkscape:window-width="1600"
     inkscape:window-height="837"
     inkscape:window-x="-8"
     inkscape:window-y="-8"
     inkscape:window-maximized="1"
     inkscape:current-layer="svg147" />
  <path
     d="M 180,3 H 76 a 8.91,8.91 0 0 0 -9,8.8 v 104.42 a 8.91,8.91 0 0 0 9,8.78 h 104 a 8.93,8.93 0 0 0 9,-8.81 V 11.77 A 8.93,8.93 0 0 0 180,3 Z"
     fill="#0076b2"
     id="path139" />
  <g
     fill="#ffffff"
     id="g145"
     transform="translate(64)">
    <path
       d="M 21.06,48.73 H 39.17 V 107 H 21.06 Z m 9.06,-29 a 10.5,10.5 0 1 1 -10.5,10.49 10.5,10.5 0 0 1 10.5,-10.49"
       id="path141" />
    <path
       d="m 50.53,48.73 h 17.36 v 8 h 0.24 C 70.55,52.15 76.45,47.32 85.26,47.32 103.6,47.28 107,59.35 107,75 v 32 H 88.89 V 78.65 c 0,-6.75 -0.12,-15.44 -9.41,-15.44 -9.29,0 -10.87,7.36 -10.87,15 V 107 H 50.53 Z"
       id="path143" />
  </g>
</svg>
