<?xml version="1.0" encoding="UTF-8" standalone="no"?>
<svg
   viewBox="0 0 1024 512"
   version="1.1"
   id="svg10"
   sodipodi:docname="researchgate.svg"
   width="1024"
   height="512"
   inkscape:export-filename="researchgate.png"
   inkscape:export-xdpi="22.5"
   inkscape:export-ydpi="22.5"
   inkscape:version="1.2.1 (9c6d41e410, 2022-07-14)"
   xmlns:inkscape="http://www.inkscape.org/namespaces/inkscape"
   xmlns:sodipodi="http://sodipodi.sourceforge.net/DTD/sodipodi-0.dtd"
   xmlns="http://www.w3.org/2000/svg"
   xmlns:svg="http://www.w3.org/2000/svg">
  <defs
     id="defs14" />
  <sodipodi:namedview
     id="namedview12"
     pagecolor="#ffffff"
     bordercolor="#000000"
     borderopacity="0.25"
     inkscape:showpageshadow="2"
     inkscape:pageopacity="0.0"
     inkscape:pagecheckerboard="0"
     inkscape:deskcolor="#d1d1d1"
     showgrid="false"
     inkscape:zoom="0.64160156"
     inkscape:cx="493.29681"
     inkscape:cy="369.38813"
     inkscape:window-width="1600"
     inkscape:window-height="837"
     inkscape:window-x="-8"
     inkscape:window-y="-8"
     inkscape:window-maximized="1"
     inkscape:current-layer="svg10" />
  <rect
     fill="#00d0af"
     height="512"
     rx="15.000001%"
     width="512"
     id="rect2"
     x="256"
     y="0" />
  <g
     fill="#feffff"
     id="g8"
     transform="translate(256)">
    <path
       d="m 271,383 c -15,-4 -23,-10 -36,-26 -9,-12 -26,-39 -35,-53 l -6,-11 h -24 v 34 c 1,43 0,42 19,45 l 10,1 v 4 4 h -80 v -4 c 0,-4 1,-4 9,-6 10,-2 14,-5 15,-14 1,-4 1,-31 1,-79 0,-70 -1,-72 -3,-77 -3,-5 -7,-7 -18,-8 -4,-1 -5,-1 -5,-5 v -4 l 43,-1 c 55,-1 65,0 81,11 15,10 22,24 20,43 -1,21 -17,42 -37,50 -4,1 -7,3 -7,3 0,2 17,28 28,43 15,21 27,32 36,37 4,2 9,3 10,3 3,0 3,1 3,4 0,3 -1,5 -2,5 -5,2 -19,2 -26,0 z M 214,274 c 14,-7 22,-18 23,-35 1,-13 -2,-22 -10,-30 -9,-10 -25,-14 -48,-12 l -10,1 v 39 c 0,36 0,40 2,40 1,0 9,1 18,0 14,0 17,-1 24,-4 z"
       id="path4" />
    <path
       d="m 321,228 c -25,-4 -34,-20 -32,-61 1,-21 3,-30 11,-38 7,-7 13,-9 25,-10 13,-1 21,2 29,8 5,4 9,10 9,13 0,1 -3,2 -6,4 l -6,3 -3,-3 c -5,-6 -9,-9 -14,-11 -10,-3 -20,2 -25,11 -3,5 -3,6 -3,29 0,22 0,25 3,29 4,7 12,11 21,10 13,-1 20,-10 20,-24 v -7 h -10 -10 v -13 h 36 v 15 c 0,12 -1,16 -3,22 -6,15 -23,24 -42,22 z"
       id="path6" />
  </g>
</svg>
